# Blender 5.0.1
# www.blender.org
mtllib head.mtl
o Mesh
v -0.299474 0.655032 -0.027588
v -0.414061 0.619503 -0.040604
v -0.414061 0.619503 0.040831
v -0.534763 0.504268 0.051419
v -0.534763 0.504268 -0.051219
v -0.299474 0.655032 0.027693
v -0.000011 0.655032 0.000052
v -0.290374 0.655032 -0.082027
v -0.290374 0.655032 0.082133
v -0.272454 0.655032 -0.133976
v -0.272454 0.655032 0.134080
v -0.246254 0.655032 -0.181849
v -0.246254 0.655032 0.181953
v -0.212573 0.655032 -0.224196
v -0.212573 0.655032 0.224300
v -0.184565 0.655032 -0.250278
v -0.184565 0.655032 0.250383
v -0.145999 0.655032 -0.277174
v -0.145999 0.655032 0.277278
v -0.095071 0.655032 -0.300807
v -0.095071 0.655032 0.300912
v -0.033207 0.655032 -0.315143
v -0.033208 0.655032 0.315247
v 0.033185 0.655032 -0.315143
v 0.033185 0.655032 0.315247
v 0.095049 0.655032 -0.300807
v 0.095049 0.655032 0.300912
v 0.145976 0.655032 -0.277174
v 0.145976 0.655032 0.277278
v 0.184543 0.655032 -0.250278
v 0.184543 0.655032 0.250383
v 0.212550 0.655032 -0.224196
v 0.212550 0.655032 0.224300
v 0.237273 0.655032 -0.194649
v 0.237273 0.655032 0.194753
v 0.262766 0.655032 -0.153961
v 0.262766 0.655032 0.154066
v 0.285169 0.655032 -0.100234
v 0.285169 0.655032 0.100339
v 0.298756 0.655032 -0.034969
v 0.298756 0.655032 0.035074
v 0.414061 0.619503 -0.040604
v 0.534763 0.504268 0.051420
v 0.414061 0.619503 0.040831
v 0.534763 0.504268 -0.051219
v 0.598925 0.355203 0.055332
v 0.598925 0.355203 -0.055228
v -0.107576 0.619503 0.451368
v -0.033208 0.655032 0.315247
v -0.095071 0.655032 0.300912
v -0.054089 -0.230434 0.635657
v -0.052399 0.355203 0.631907
v -0.155605 0.355203 0.612710
v -0.138936 0.504268 0.568854
v -0.046786 0.504268 0.586676
v -0.036226 0.619503 0.465509
v 0.033185 0.655032 0.315247
v 0.036226 0.619503 0.465509
v 0.054089 -0.230434 0.635657
v -0.052031 -0.376445 0.611462
v 0.052399 0.355203 0.631907
v 0.046786 0.504268 0.586676
v 0.107576 0.619503 0.451368
v 0.095049 0.655032 0.300912
v 0.138936 0.504268 0.568854
v 0.175657 0.619503 0.423517
v 0.145976 0.655032 0.277278
v 0.155605 0.355203 0.612710
v 0.226864 0.504268 0.533749
v 0.238403 0.619503 0.382800
v 0.184543 0.655032 0.250383
v 0.293904 0.619503 0.330455
v 0.212550 0.655032 0.224300
v 0.237273 0.655032 0.194753
v 0.307900 0.504268 0.482430
v 0.254083 0.355203 0.574893
v 0.160625 -0.230434 0.616342
v 0.344841 0.355203 0.519614
v 0.340475 0.619503 0.268073
v 0.262766 0.655032 0.154066
v 0.379579 0.504268 0.416456
v 0.439725 0.504268 0.337832
v 0.376701 0.619503 0.197548
v 0.285169 0.655032 0.100339
v 0.486511 0.504268 0.248945
v 0.401480 0.619503 0.121026
v 0.298756 0.655032 0.035074
v 0.414061 0.619503 0.040831
v 0.414061 0.619503 -0.040604
v 0.534763 0.504268 0.051420
v 0.518515 0.504268 0.152498
v 0.598925 0.355203 0.055332
v 0.580728 0.355203 0.164213
v 0.544882 0.355203 0.268105
v 0.594714 -0.376445 -0.053509
v 0.527705 -0.500225 0.047457
v 0.527705 -0.500225 -0.047480
v 0.427417 -0.582925 0.038437
v 0.594714 -0.376445 0.053485
v -0.598925 0.355203 -0.055228
v -0.618245 -0.317735 0.055601
v -0.598925 0.355203 0.055332
v 0.618245 -0.230434 0.055601
v 0.598925 0.355203 -0.055228
v 0.599460 -0.230434 0.165140
v 0.618245 -0.230434 -0.055625
v 0.594714 -0.376445 0.053485
v 0.594714 -0.376445 -0.053509
v 0.576644 -0.376445 0.158854
v 0.511671 -0.500225 0.140953
v 0.527705 -0.500225 0.047457
v 0.541052 -0.376445 0.259395
v 0.427417 -0.582925 0.038437
v 0.562460 -0.230434 0.269659
v 0.480090 -0.500225 0.230167
v 0.492484 0.355203 0.363853
v 0.425121 0.355203 0.448547
v 0.508370 -0.230434 0.365985
v 0.438835 -0.230434 0.451190
v 0.489022 -0.376445 0.352056
v 0.422132 -0.376445 0.434017
v 0.355965 -0.230434 0.522685
v 0.433922 -0.500225 0.312386
v 0.374569 -0.500225 0.385113
v 0.342418 -0.376445 0.502792
v 0.262279 -0.230434 0.578300
v 0.351457 -0.582925 -0.253041
v 0.254185 -0.611980 -0.183011
v 0.219417 -0.611980 -0.225613
v 0.281230 -0.611980 -0.134848
v 0.303385 -0.582925 -0.311947
v 0.388853 -0.582925 -0.186446
v 0.246094 -0.582938 -0.361374
v 0.177983 -0.611980 -0.261360
v 0.299730 -0.611980 -0.082587
v 0.131140 -0.611980 -0.289168
v 0.374569 -0.500225 -0.385137
v 0.427417 -0.582925 -0.038461
v 0.309123 -0.611980 -0.027819
v 0.414431 -0.582925 -0.114187
v 0.511671 -0.500225 -0.140977
v 0.527705 -0.500225 -0.047480
v 0.594714 -0.376445 -0.053509
v 0.576644 -0.376445 -0.158877
v 0.618245 -0.230434 -0.055625
v 0.480090 -0.500225 -0.230191
v 0.433922 -0.500225 -0.312410
v 0.541052 -0.376445 -0.259419
v 0.489022 -0.376445 -0.352080
v 0.599460 -0.230434 -0.165164
v 0.562460 -0.230434 -0.269683
v 0.580728 0.355203 -0.164108
v 0.598925 0.355203 -0.055228
v 0.544882 0.355203 -0.268001
v 0.508370 -0.230434 -0.366009
v 0.518515 0.504268 -0.152297
v 0.534763 0.504268 -0.051219
v 0.486511 0.504268 -0.248745
v 0.492484 0.355203 -0.363749
v 0.439725 0.504268 -0.337632
v 0.401480 0.619503 -0.120800
v 0.414061 0.619503 -0.040604
v 0.298756 0.655032 -0.034969
v 0.285169 0.655032 -0.100234
v 0.376701 0.619503 -0.197321
v 0.262766 0.655032 -0.153961
v 0.340475 0.619503 -0.267846
v 0.237273 0.655032 -0.194649
v 0.293904 0.619503 -0.330228
v 0.212550 0.655032 -0.224196
v 0.184543 0.655032 -0.250278
v 0.379579 0.504268 -0.416256
v 0.238403 0.619503 -0.382573
v 0.145976 0.655032 -0.277174
v 0.175657 0.619503 -0.423290
v 0.095049 0.655032 -0.300807
v 0.425121 0.355203 -0.448443
v 0.438835 -0.230434 -0.451214
v 0.422132 -0.376445 -0.434041
v 0.355965 -0.230434 -0.522709
v 0.342418 -0.376445 -0.502815
v 0.303835 -0.500225 -0.446163
v 0.262279 -0.230434 -0.578323
v 0.344841 0.355203 -0.519509
v 0.307900 0.504268 -0.482231
v 0.254083 0.355203 -0.574788
v 0.226864 0.504268 -0.533549
v 0.252297 -0.376445 -0.556312
v 0.160625 -0.230434 -0.616366
v 0.155605 0.355203 -0.612605
v 0.138936 0.504268 -0.568653
v 0.107576 0.619503 -0.451141
v 0.033185 0.655032 -0.315143
v 0.036226 0.619503 -0.465282
v 0.046786 0.504268 -0.586476
v -0.036226 0.619503 -0.465282
v -0.033207 0.655032 -0.315143
v 0.052399 0.355203 -0.631803
v -0.046786 0.504268 -0.586476
v -0.107576 0.619503 -0.451141
v -0.095071 0.655032 -0.300807
v -0.052399 0.355203 -0.631803
v -0.138936 0.504268 -0.568653
v 0.252297 -0.376445 0.556288
v 0.303835 -0.500225 0.446139
v 0.154511 -0.376445 0.592883
v 0.223870 -0.500225 0.493608
v 0.246094 -0.582925 0.361352
v 0.052031 -0.376445 0.611462
v -0.046168 -0.500225 0.542565
v 0.137101 -0.500225 0.526079
v 0.046167 -0.500225 0.542565
v -0.037395 -0.582925 0.439451
v 0.037395 -0.582925 0.439451
v 0.034266 -0.611980 0.317086
v 0.111046 -0.582925 0.426099
v 0.098126 -0.611980 0.302664
v 0.181325 -0.582925 0.399800
v 0.150696 -0.611980 0.278887
v 0.190508 -0.611980 0.251830
v 0.303385 -0.582925 0.311923
v 0.219417 -0.611980 0.225589
v 0.351457 -0.582925 0.253018
v 0.254185 -0.611980 0.182987
v 0.281230 -0.611980 0.134824
v 0.388853 -0.582925 0.186423
v 0.414431 -0.582925 0.114164
v 0.299730 -0.611980 0.082564
v 0.309123 -0.611980 0.027795
v 0.427417 -0.582925 -0.038461
v 0.527705 -0.500225 -0.047480
v 0.309123 -0.611980 -0.027819
v -0.379579 0.504268 0.416456
v -0.425121 0.355203 0.448547
v -0.344841 0.355203 0.519614
v -0.355965 -0.230434 0.522685
v -0.438835 -0.230434 0.451190
v -0.262279 -0.230434 0.578300
v -0.508370 -0.230434 0.365985
v -0.422132 -0.376445 0.434017
v -0.342418 -0.376445 0.502792
v -0.489022 -0.376445 0.352056
v -0.374569 -0.500225 0.385113
v -0.492484 0.355203 0.363853
v -0.562460 -0.230434 0.269659
v -0.541052 -0.376445 0.259395
v -0.439725 0.504268 0.337832
v -0.544882 0.355203 0.268105
v -0.599460 -0.230434 0.165140
v -0.486511 0.504268 0.248945
v -0.580728 0.355203 0.164213
v -0.293904 0.619503 0.330455
v -0.340475 0.619503 0.268073
v -0.376701 0.619503 0.197548
v -0.518515 0.504268 0.152498
v -0.246254 0.655032 0.181953
v -0.212573 0.655032 0.224300
v -0.272454 0.655032 0.134080
v -0.184565 0.655032 0.250383
v -0.401480 0.619503 0.121026
v -0.290374 0.655032 0.082133
v -0.414061 0.619503 0.040831
v -0.299474 0.655032 0.027693
v -0.534763 0.504268 0.051419
v -0.598925 0.355203 0.055332
v -0.534763 0.504268 -0.051219
v -0.598925 0.355203 -0.055228
v -0.618245 -0.230434 0.055601
v -0.618245 -0.230434 -0.055625
v -0.594714 -0.376445 0.053485
v -0.594714 -0.376445 -0.053509
v -0.576644 -0.376445 0.158854
v -0.511671 -0.500225 0.140953
v -0.527705 -0.500225 0.047456
v -0.480090 -0.500225 0.230167
v -0.433922 -0.500225 0.312386
v -0.388853 -0.582925 0.186423
v -0.351457 -0.582925 0.253018
v -0.414431 -0.582925 0.114164
v -0.281230 -0.611980 0.134824
v -0.254185 -0.611980 0.182987
v -0.299730 -0.611980 0.082563
v -0.219417 -0.611980 0.225589
v -0.427417 -0.582925 0.038437
v -0.309123 -0.611980 0.027795
v -0.527705 -0.500225 -0.047481
v -0.303385 -0.582925 0.311923
v -0.190508 -0.611980 0.251830
v -0.246094 -0.582925 0.361352
v -0.150696 -0.611980 0.278887
v -0.303835 -0.500225 0.446139
v -0.181325 -0.582925 0.399800
v -0.098126 -0.611980 0.302664
v -0.223870 -0.500225 0.493608
v -0.252297 -0.376445 0.556288
v -0.111046 -0.582925 0.426099
v -0.034266 -0.611980 0.317086
v -0.137101 -0.500225 0.526079
v -0.154511 -0.376445 0.592883
v -0.160625 -0.230434 0.616342
v -0.254083 0.355203 0.574893
v -0.307900 0.504268 0.482430
v -0.238403 0.619503 0.382800
v -0.145999 0.655032 0.277278
v -0.226864 0.504268 0.533749
v -0.175657 0.619503 0.423517
v 0.024380 -0.611980 -0.025079
v -0.024380 -0.611980 0.025055
v -0.024380 -0.611980 -0.025079
v -0.032709 -0.611980 -0.100903
v -0.098126 -0.611980 0.033619
v -0.098126 -0.611980 -0.033643
v -0.073140 -0.611980 -0.075213
v -0.147824 -0.611980 -0.091207
v -0.088695 -0.611980 -0.152002
v -0.169042 -0.611980 -0.034774
v -0.121899 -0.611980 -0.125346
v -0.196393 -0.611980 -0.144245
v -0.140280 -0.611980 -0.201940
v -0.033809 -0.611980 -0.173818
v -0.095071 -0.611980 -0.228098
v -0.080312 -0.611980 -0.308189
v -0.131140 -0.611980 -0.289168
v -0.034131 -0.611980 -0.245666
v -0.027045 -0.611980 -0.317847
v 0.027045 -0.611980 -0.317847
v -0.170658 -0.611980 -0.175479
v -0.177983 -0.611980 -0.261360
v -0.254185 -0.611980 -0.183011
v -0.219417 -0.611980 -0.225613
v -0.281230 -0.611980 -0.134848
v -0.299730 -0.611980 -0.082588
v 0.034131 -0.611980 -0.245666
v 0.080313 -0.611980 -0.308189
v 0.033809 -0.611980 -0.173818
v 0.095071 -0.611980 -0.228098
v 0.131140 -0.611980 -0.289168
v 0.032709 -0.611980 -0.100903
v 0.140280 -0.611980 -0.201940
v 0.177983 -0.611980 -0.261360
v 0.088695 -0.611980 -0.152002
v 0.219417 -0.611980 -0.225613
v 0.170658 -0.611980 -0.175479
v 0.196393 -0.611980 -0.144245
v 0.254185 -0.611980 -0.183011
v 0.121899 -0.611980 -0.125346
v 0.281230 -0.611980 -0.134848
v 0.073140 -0.611980 -0.075213
v 0.147824 -0.611980 -0.091207
v 0.098126 -0.611980 -0.033643
v 0.221834 -0.611980 -0.097762
v 0.299730 -0.611980 -0.082587
v 0.169042 -0.611980 -0.034774
v 0.238921 -0.611980 -0.035105
v 0.196393 -0.611980 0.144221
v 0.170658 -0.611980 0.175457
v 0.140280 -0.611980 0.201916
v 0.309123 -0.611980 -0.027819
v 0.098126 -0.611980 0.033619
v 0.169042 -0.611980 0.034750
v 0.238921 -0.611980 0.035081
v 0.309123 -0.611980 0.027795
v 0.299730 -0.611980 0.082564
v 0.221834 -0.611980 0.097738
v 0.147824 -0.611980 0.091183
v 0.196393 -0.611980 0.144221
v 0.281230 -0.611980 0.134824
v 0.170658 -0.611980 0.175457
v 0.254185 -0.611980 0.182987
v 0.190508 -0.611980 0.251830
v 0.219417 -0.611980 0.225589
v 0.140280 -0.611980 0.201916
v 0.121899 -0.611980 0.125322
v 0.150696 -0.611980 0.278887
v 0.088695 -0.611980 0.151978
v 0.073140 -0.611980 0.075189
v 0.095071 -0.611980 0.228074
v 0.098126 -0.611980 0.302664
v 0.032709 -0.611980 0.100880
v 0.033809 -0.611980 0.173794
v 0.034131 -0.611980 0.245642
v 0.034266 -0.611980 0.317086
v -0.034266 -0.611980 0.317086
v 0.024380 -0.611980 0.025055
v -0.034131 -0.611980 0.245642
v -0.098126 -0.611980 0.302664
v -0.033809 -0.611980 0.173794
v -0.095071 -0.611980 0.228074
v -0.150696 -0.611980 0.278887
v -0.032709 -0.611980 0.100880
v -0.088695 -0.611980 0.151978
v -0.140280 -0.611980 0.201916
v -0.190508 -0.611980 0.251830
v -0.073140 -0.611980 0.075189
v -0.121899 -0.611980 0.125322
v -0.170658 -0.611980 0.175457
v -0.219417 -0.611980 0.225589
v -0.196393 -0.611980 0.144221
v -0.254185 -0.611980 0.182987
v -0.281230 -0.611980 0.134824
v -0.147824 -0.611980 0.091183
v -0.221834 -0.611980 0.097738
v -0.299730 -0.611980 0.082563
v -0.169042 -0.611980 0.034750
v -0.238921 -0.611980 0.035081
v -0.309123 -0.611980 0.027795
v -0.238921 -0.611980 -0.035105
v -0.309123 -0.611980 -0.027819
v -0.427417 -0.582925 0.038437
v -0.427417 -0.582925 -0.038461
v -0.527705 -0.500225 -0.047481
v -0.594714 -0.376445 -0.053509
v -0.527705 -0.500225 0.047456
v -0.594714 -0.376445 0.053485
v -0.221834 -0.611980 -0.097762
v -0.175657 0.619503 -0.423290
v -0.145999 0.655032 -0.277174
v -0.238403 0.619503 -0.382573
v -0.184565 0.655032 -0.250278
v -0.226864 0.504268 -0.533549
v -0.155605 0.355203 -0.612605
v -0.054089 -0.230434 -0.635681
v -0.254083 0.355203 -0.574788
v -0.293904 0.619503 -0.330228
v -0.212573 0.655032 -0.224196
v -0.307900 0.504268 -0.482231
v -0.379579 0.504268 -0.416256
v -0.340475 0.619503 -0.267846
v -0.246254 0.655032 -0.181849
v -0.439725 0.504268 -0.337632
v -0.376701 0.619503 -0.197321
v -0.272454 0.655032 -0.133976
v -0.486511 0.504268 -0.248745
v -0.492484 0.355203 -0.363749
v -0.401480 0.619503 -0.120800
v -0.290374 0.655032 -0.082027
v -0.414061 0.619503 -0.040604
v -0.299474 0.655032 -0.027588
v -0.534763 0.504268 -0.051219
v -0.518515 0.504268 -0.152297
v -0.598925 0.355203 -0.055228
v -0.580728 0.355203 -0.164108
v -0.618245 -0.230434 -0.055625
v -0.544882 0.355203 -0.268001
v -0.599460 -0.230434 -0.165164
v -0.576644 -0.376445 -0.158877
v -0.594714 -0.376445 -0.053509
v -0.562460 -0.230434 -0.269683
v -0.541052 -0.376445 -0.259419
v -0.511671 -0.500225 -0.140977
v -0.527705 -0.500225 -0.047481
v -0.480090 -0.500225 -0.230191
v -0.427417 -0.582925 -0.038461
v -0.414431 -0.582925 -0.114187
v -0.309123 -0.611980 -0.027819
v -0.299730 -0.611980 -0.082588
v -0.388853 -0.582925 -0.186446
v -0.281230 -0.611980 -0.134848
v -0.351457 -0.582925 -0.253041
v -0.254185 -0.611980 -0.183011
v -0.433922 -0.500225 -0.312410
v -0.219417 -0.611980 -0.225613
v -0.489022 -0.376445 -0.352080
v -0.303385 -0.582925 -0.311947
v -0.374569 -0.500225 -0.385137
v -0.246094 -0.582938 -0.361374
v -0.177983 -0.611980 -0.261360
v -0.131140 -0.611980 -0.289168
v -0.508370 -0.230434 -0.366009
v -0.422132 -0.376445 -0.434041
v -0.425121 0.355203 -0.448443
v -0.438835 -0.230434 -0.451214
v -0.355965 -0.230434 -0.522709
v -0.344841 0.355203 -0.519509
v -0.262279 -0.230434 -0.578323
v -0.342418 -0.376445 -0.502815
v -0.160625 -0.230434 -0.616366
v -0.252297 -0.376445 -0.556312
v -0.303835 -0.500225 -0.446163
v -0.181325 -0.582938 -0.399824
v -0.223870 -0.500225 -0.493632
v -0.154511 -0.376445 -0.592907
v -0.137101 -0.500225 -0.526102
v -0.111046 -0.582938 -0.426123
v -0.080312 -0.611980 -0.308189
v -0.037395 -0.582938 -0.439475
v -0.027045 -0.611980 -0.317847
v -0.052031 -0.376445 -0.611486
v -0.046167 -0.500225 -0.542589
v 0.037395 -0.582938 -0.439475
v 0.027045 -0.611980 -0.317847
v 0.080313 -0.611980 -0.308189
v 0.046168 -0.500225 -0.542589
v 0.052031 -0.376445 -0.611486
v 0.137101 -0.500225 -0.526102
v 0.111046 -0.582938 -0.426123
v 0.181325 -0.582938 -0.399824
v 0.223870 -0.500225 -0.493632
v 0.154511 -0.376445 -0.592907
v 0.054089 -0.230434 -0.635681
vn -0.1381 0.9904 -0.0087
vn -0.5137 0.8574 -0.0322
vn -0.5137 0.8574 0.0322
vn -0.8302 0.5541 0.0619
vn -0.8301 0.5541 -0.0618
vn -0.1381 0.9904 0.0087
vn -0.0000 1.0000 -0.0000
vn -0.1030 0.9942 -0.0302
vn -0.1029 0.9942 0.0302
vn -0.0956 0.9944 -0.0454
vn -0.0956 0.9944 0.0454
vn -0.0883 0.9942 -0.0609
vn -0.0883 0.9942 0.0608
vn -0.0807 0.9944 -0.0689
vn -0.0807 0.9944 0.0688
vn -0.0653 0.9942 -0.0851
vn -0.0653 0.9942 0.0850
vn -0.0496 0.9944 -0.0936
vn -0.0572 0.9940 0.0933
vn -0.0329 0.9943 -0.1018
vn -0.0329 0.9943 0.1018
vn -0.0085 0.9939 -0.1103
vn -0.0164 0.9938 0.1103
vn 0.0164 0.9938 -0.1103
vn 0.0085 0.9939 0.1103
vn 0.0329 0.9943 -0.1018
vn 0.0329 0.9943 0.1018
vn 0.0573 0.9940 -0.0933
vn 0.0495 0.9944 0.0936
vn 0.0653 0.9942 -0.0851
vn 0.0653 0.9942 0.0851
vn 0.0731 0.9944 -0.0770
vn 0.0807 0.9944 0.0689
vn 0.0883 0.9942 -0.0609
vn 0.0883 0.9942 0.0609
vn 0.0957 0.9944 -0.0451
vn 0.0958 0.9940 0.0531
vn 0.1029 0.9942 -0.0300
vn 0.1031 0.9942 0.0303
vn 0.1452 0.9894 -0.0088
vn 0.1347 0.9908 0.0145
vn 0.4662 0.8839 -0.0362
vn 0.8211 0.5674 0.0622
vn 0.5530 0.8326 -0.0324
vn 0.5529 0.8326 0.0324
vn 0.8211 0.5674 -0.0624
vn 0.9883 0.1272 0.0840
vn 0.9883 0.1272 -0.0840
vn 0.9529 -0.2929 -0.0785
vn 0.7728 -0.6316 0.0621
vn 0.7715 -0.6330 -0.0636
vn 0.4814 -0.8760 0.0298
vn 0.9529 -0.2929 0.0786
vn -0.9521 0.2928 -0.0884
vn -0.9927 -0.0837 0.0873
vn -0.9521 0.2934 0.0867
vn -0.2676 0.1548 0.9510
vn -0.2672 -0.0796 0.9603
vn -0.0892 -0.0806 0.9927
vn -0.2473 -0.3252 0.9127
vn -0.0945 0.1491 0.9843
vn -0.2011 -0.6420 0.7399
vn -0.0828 -0.3272 0.9413
vn -0.0692 -0.6411 0.7643
vn -0.0375 -0.8928 0.4489
vn 0.0893 -0.0806 0.9927
vn 0.0830 -0.3272 0.9413
vn 0.0694 -0.6412 0.7643
vn 0.0375 -0.8960 0.4425
vn 0.0201 -0.9901 0.1389
vn 0.2011 -0.6420 0.7399
vn 0.1200 -0.8938 0.4320
vn 0.0444 -0.9895 0.1374
vn 0.1939 -0.8936 0.4048
vn 0.0674 -0.9896 0.1271
vn 0.2470 -0.3254 0.9127
vn 0.3308 -0.6394 0.6941
vn 0.2594 -0.8929 0.3679
vn -0.1439 0.8705 0.4706
vn -0.0208 0.9898 0.1407
vn -0.0465 0.9898 0.1348
vn -0.0460 0.8738 0.4842
vn 0.0130 0.9900 0.1407
vn -0.2239 0.8707 0.4380
vn -0.0813 0.9882 0.1297
vn -0.0818 0.5199 0.8503
vn -0.3071 0.8667 0.3930
vn -0.1009 0.9871 0.1242
vn -0.2361 0.5245 0.8180
vn -0.3828 0.5280 0.7580
vn -0.3700 0.8674 0.3327
vn -0.1290 0.9857 0.1086
vn -0.5127 0.5351 0.6715
vn -0.4284 0.8626 0.2690
vn -0.1515 0.9836 0.0982
vn -0.6157 0.5445 0.5696
vn -0.6998 0.5533 0.4519
vn -0.4689 0.8603 0.2000
vn -0.1733 0.9819 0.0763
vn -0.7620 0.5601 0.3249
vn -0.8159 0.1942 0.5446
vn -0.8968 0.2035 0.3928
vn -0.4984 0.8581 0.1230
vn -0.1918 0.9801 0.0508
vn -0.5071 0.8608 0.0439
vn -0.1966 0.9802 0.0213
vn -0.8183 0.5706 0.0689
vn -0.8009 0.5664 0.1946
vn -0.9791 0.1861 0.0816
vn -0.8141 0.5771 -0.0645
vn -0.9883 0.1272 -0.0840
vn -0.9482 0.2113 0.2372
vn -0.9942 -0.0663 0.0849
vn -0.9508 0.2957 -0.0919
vn -0.9941 -0.0656 -0.0861
vn -0.9650 -0.0672 0.2535
vn -0.9105 -0.0686 0.4077
vn -0.9413 -0.3283 0.0791
vn -0.9353 -0.3450 -0.0793
vn -0.9181 -0.3191 0.2352
vn -0.8626 -0.3195 0.3923
vn -0.7489 -0.6340 0.1928
vn -0.7729 -0.6309 0.0677
vn -0.7053 -0.6334 0.3183
vn -0.4600 -0.8871 0.0388
vn -0.7758 -0.6281 -0.0606
vn -0.4411 -0.8900 0.1155
vn -0.1441 -0.9890 0.0336
vn -0.1453 -0.9893 0.0146
vn -0.1335 -0.9890 0.0634
vn -0.4140 -0.8907 0.1877
vn -0.3764 -0.8897 0.2584
vn -0.1217 -0.9889 0.0848
vn -0.6381 -0.6346 0.4360
vn -0.1014 -0.9901 0.0975
vn -0.7827 -0.3232 0.5319
vn -0.5528 -0.6365 0.5379
vn -0.3232 -0.8927 0.3140
vn -0.0887 -0.9901 0.1088
vn -0.2666 -0.8912 0.3671
vn -0.0673 -0.9906 0.1194
vn -0.8240 -0.0707 0.5621
vn -0.6779 -0.3241 0.6599
vn -0.7133 0.1830 0.6765
vn -0.7149 -0.0738 0.6953
vn -0.5838 -0.0748 0.8085
vn -0.5900 0.1741 0.7884
vn -0.5511 -0.3257 0.7683
vn -0.4273 -0.0775 0.9008
vn -0.4354 0.1625 0.8854
vn -0.4507 -0.6378 0.6246
vn -0.4094 -0.3240 0.8529
vn -0.3311 -0.6395 0.6939
vn -0.1944 -0.8935 0.4048
vn -0.0444 -0.9906 0.1296
vn -0.1201 -0.8938 0.4320
vn -0.0123 -0.9902 0.1390
vn 0.3763 -0.8898 -0.2583
vn 0.1217 -0.9889 -0.0849
vn 0.1010 -0.9901 -0.0977
vn 0.1335 -0.9890 -0.0634
vn 0.3232 -0.8927 -0.3140
vn 0.4141 -0.8906 -0.1878
vn 0.2666 -0.8912 -0.3669
vn 0.0872 -0.9893 -0.1173
vn 0.1440 -0.9890 -0.0337
vn 0.0650 -0.9896 -0.1283
vn 0.5530 -0.6361 -0.5381
vn 0.4566 -0.8887 -0.0401
vn 0.1453 -0.9893 -0.0146
vn 0.4409 -0.8901 -0.1156
vn 0.7489 -0.6339 -0.1929
vn 0.7716 -0.6322 -0.0702
vn 0.9441 -0.3201 -0.0792
vn 0.9180 -0.3192 -0.2353
vn 0.9944 -0.0661 -0.0826
vn 0.7053 -0.6334 -0.3183
vn 0.6382 -0.6346 -0.4359
vn 0.8626 -0.3194 -0.3924
vn 0.7826 -0.3232 -0.5321
vn 0.9650 -0.0670 -0.2537
vn 0.9105 -0.0685 -0.4077
vn 0.9482 0.2114 -0.2372
vn 0.9735 0.2131 -0.0830
vn 0.8968 0.2039 -0.3926
vn 0.8241 -0.0705 -0.5620
vn 0.8010 0.5663 -0.1944
vn 0.8209 0.5668 -0.0703
vn 0.7621 0.5601 -0.3249
vn 0.8159 0.1941 -0.5446
vn 0.6998 0.5534 -0.4517
vn 0.4988 0.8580 -0.1231
vn 0.5086 0.8599 -0.0437
vn 0.2016 0.9792 -0.0218
vn 0.1870 0.9809 -0.0531
vn 0.4695 0.8599 -0.2002
vn 0.1664 0.9830 -0.0780
vn 0.4290 0.8623 -0.2693
vn 0.1452 0.9845 -0.0983
vn 0.3703 0.8676 -0.3317
vn 0.1177 0.9861 -0.1171
vn 0.1011 0.9871 -0.1244
vn 0.6164 0.5437 -0.5696
vn 0.3058 0.8672 -0.3931
vn 0.0815 0.9882 -0.1298
vn 0.2238 0.8708 -0.4377
vn 0.0466 0.9898 -0.1350
vn 0.7134 0.1832 -0.6764
vn 0.7150 -0.0734 -0.6953
vn 0.6780 -0.3236 -0.6600
vn 0.5838 -0.0747 -0.8085
vn 0.5512 -0.3257 -0.7682
vn 0.4507 -0.6378 -0.6246
vn 0.4274 -0.0775 -0.9008
vn 0.5898 0.1737 -0.7886
vn 0.5123 0.5348 -0.6720
vn 0.4354 0.1632 -0.8853
vn 0.3827 0.5283 -0.7579
vn 0.4094 -0.3241 -0.8529
vn 0.2672 -0.0796 -0.9604
vn 0.2676 0.1549 -0.9510
vn 0.2360 0.5247 -0.8180
vn 0.1441 0.8707 -0.4702
vn 0.0209 0.9898 -0.1409
vn 0.0461 0.8737 -0.4842
vn 0.0821 0.5203 -0.8500
vn -0.0461 0.8738 -0.4841
vn -0.0130 0.9900 -0.1408
vn 0.0945 0.1496 -0.9842
vn -0.0821 0.5203 -0.8500
vn -0.1439 0.8705 -0.4707
vn -0.0467 0.9898 -0.1350
vn -0.0945 0.1495 -0.9842
vn -0.2360 0.5248 -0.8179
vn 0.0888 -0.9901 0.1088
vn 0.3233 -0.8927 0.3141
vn 0.1015 -0.9900 0.0975
vn 0.3764 -0.8897 0.2585
vn 0.1217 -0.9889 0.0848
vn 0.1335 -0.9890 0.0633
vn 0.5528 -0.6365 0.5379
vn 0.4142 -0.8906 0.1878
vn 0.4507 -0.6378 0.6246
vn 0.4094 -0.3240 0.8529
vn 0.5511 -0.3257 0.7682
vn 0.2671 -0.0796 0.9604
vn 0.4274 -0.0776 0.9007
vn 0.6779 -0.3241 0.6599
vn 0.5839 -0.0749 0.8084
vn 0.7149 -0.0738 0.6953
vn 0.5899 0.1733 0.7887
vn 0.4352 0.1628 0.8855
vn 0.2676 0.1548 0.9510
vn 0.7133 0.1829 0.6765
vn 0.8241 -0.0705 0.5620
vn 0.7827 -0.3232 0.5319
vn 0.8160 0.1938 0.5446
vn 0.6381 -0.6345 0.4360
vn 0.9105 -0.0686 0.4077
vn 0.8626 -0.3195 0.3923
vn 0.7054 -0.6334 0.3181
vn 0.7489 -0.6339 0.1930
vn 0.9181 -0.3191 0.2352
vn 0.9650 -0.0669 0.2535
vn 0.8968 0.2036 0.3927
vn 0.9943 -0.0658 0.0843
vn 0.9482 0.2113 0.2373
vn 0.6999 0.5532 0.4518
vn 0.7620 0.5601 0.3249
vn 0.6157 0.5445 0.5696
vn 0.5125 0.5351 0.6715
vn 0.3701 0.8673 0.3330
vn 0.4290 0.8622 0.2694
vn 0.3828 0.5280 0.7581
vn 0.3072 0.8667 0.3930
vn 0.1450 0.9845 0.0982
vn 0.1253 0.9861 0.1089
vn 0.1010 0.9871 0.1242
vn 0.1663 0.9823 0.0859
vn 0.0737 0.9888 0.1299
vn 0.4705 0.8612 0.1925
vn 0.1871 0.9809 0.0534
vn 0.2316 0.8691 0.4370
vn 0.0465 0.9898 0.1348
vn 0.2361 0.5245 0.8180
vn 0.1442 0.8707 0.4702
vn 0.0945 0.1491 0.9843
vn 0.0820 0.5200 0.8503
vn 0.0459 0.8738 0.4842
vn 0.4987 0.8580 0.1232
vn 0.2024 0.9789 0.0269
vn 0.4958 0.8675 0.0400
vn 0.4667 0.8838 -0.0334
vn 0.8209 0.5667 0.0702
vn 0.8008 0.5664 0.1945
vn 0.9670 0.2404 0.0845
vn 0.9508 0.2975 -0.0867
vn 0.9941 -0.0656 -0.0861
vn 0.9412 -0.3283 0.0792
vn 0.9353 -0.3450 -0.0792
vn 0.7717 -0.6322 0.0694
vn 0.4556 -0.8894 0.0366
vn 0.4408 -0.8901 0.1157
vn 0.1441 -0.9890 0.0336
vn 0.1456 -0.9893 0.0113
vn 0.4584 -0.8882 -0.0318
vn 0.7759 -0.6279 -0.0604
vn 0.1461 -0.9892 -0.0078
vn -0.0000 -1.0000 -0.0000
vn -0.0244 -0.9944 -0.1024
vn -0.0483 -0.9944 -0.0942
vn -0.0083 -0.9947 -0.1026
vn 0.0083 -0.9947 -0.1026
vn -0.0642 -0.9942 -0.0859
vn -0.0875 -0.9942 -0.0619
vn -0.0721 -0.9949 -0.0701
vn -0.0952 -0.9944 -0.0463
vn -0.1026 -0.9945 -0.0230
vn 0.0244 -0.9944 -0.1024
vn 0.0483 -0.9944 -0.0942
vn 0.0642 -0.9942 -0.0859
vn 0.0721 -0.9949 -0.0701
vn 0.0876 -0.9942 -0.0620
vn 0.0952 -0.9944 -0.0463
vn 0.1027 -0.9944 -0.0231
vn 0.1026 -0.9947 -0.0077
vn 0.1026 -0.9947 0.0078
vn 0.1027 -0.9944 0.0230
vn 0.0951 -0.9944 0.0462
vn 0.0876 -0.9942 0.0620
vn 0.0641 -0.9949 0.0782
vn 0.0721 -0.9949 0.0701
vn 0.0485 -0.9944 0.0941
vn 0.0323 -0.9942 0.1022
vn 0.0160 -0.9946 0.1025
vn -0.0082 -0.9947 0.1026
vn -0.0324 -0.9950 0.0945
vn -0.0484 -0.9951 0.0863
vn -0.0641 -0.9949 0.0782
vn -0.0721 -0.9949 0.0701
vn -0.0876 -0.9942 0.0620
vn -0.0952 -0.9944 0.0463
vn -0.1027 -0.9944 0.0230
vn -0.1183 -0.9930 0.0080
vn -0.1184 -0.9929 -0.0081
vn -0.4541 -0.8903 0.0324
vn -0.4583 -0.8882 -0.0319
vn -0.7760 -0.6279 -0.0596
vn -0.9529 -0.2929 -0.0786
vn -0.7708 -0.6340 -0.0625
vn -0.7706 -0.6341 0.0635
vn -0.9529 -0.2929 0.0785
vn -0.2315 0.8688 -0.4377
vn -0.0739 0.9887 -0.1301
vn -0.3056 0.8672 -0.3931
vn -0.1011 0.9871 -0.1244
vn -0.3826 0.5283 -0.7579
vn -0.2674 0.1552 -0.9510
vn -0.0891 -0.0806 -0.9928
vn -0.4353 0.1630 -0.8854
vn -0.3704 0.8678 -0.3312
vn -0.1291 0.9856 -0.1088
vn -0.5123 0.5347 -0.6720
vn -0.6162 0.5441 -0.5694
vn -0.4281 0.8626 -0.2694
vn -0.1516 0.9835 -0.0984
vn -0.6998 0.5535 -0.4517
vn -0.4684 0.8605 -0.2002
vn -0.1734 0.9819 -0.0763
vn -0.7620 0.5602 -0.3249
vn -0.8160 0.1939 -0.5446
vn -0.4982 0.8583 -0.1233
vn -0.1919 0.9801 -0.0508
vn -0.5072 0.8607 -0.0439
vn -0.1967 0.9802 -0.0214
vn -0.8209 0.5668 -0.0703
vn -0.8008 0.5665 -0.1945
vn -0.9735 0.2132 -0.0830
vn -0.9482 0.2113 -0.2372
vn -0.9944 -0.0661 -0.0826
vn -0.8967 0.2040 -0.3929
vn -0.9650 -0.0669 -0.2535
vn -0.9181 -0.3187 -0.2354
vn -0.9440 -0.3201 -0.0793
vn -0.9105 -0.0685 -0.4077
vn -0.8626 -0.3193 -0.3924
vn -0.7491 -0.6338 -0.1928
vn -0.7717 -0.6322 -0.0694
vn -0.7053 -0.6333 -0.3184
vn -0.4566 -0.8887 -0.0400
vn -0.4413 -0.8899 -0.1152
vn -0.1453 -0.9893 -0.0146
vn -0.1441 -0.9890 -0.0336
vn -0.4141 -0.8907 -0.1877
vn -0.1335 -0.9890 -0.0634
vn -0.3763 -0.8898 -0.2583
vn -0.1216 -0.9890 -0.0847
vn -0.6381 -0.6345 -0.4361
vn -0.1010 -0.9901 -0.0977
vn -0.7827 -0.3233 -0.5319
vn -0.3232 -0.8927 -0.3140
vn -0.5528 -0.6365 -0.5379
vn -0.2666 -0.8912 -0.3670
vn -0.0872 -0.9893 -0.1173
vn -0.0650 -0.9896 -0.1283
vn -0.8241 -0.0704 -0.5620
vn -0.6779 -0.3241 -0.6599
vn -0.7134 0.1832 -0.6764
vn -0.7149 -0.0736 -0.6953
vn -0.5837 -0.0748 -0.8085
vn -0.5898 0.1737 -0.7886
vn -0.4274 -0.0775 -0.9008
vn -0.5512 -0.3257 -0.7681
vn -0.2672 -0.0795 -0.9603
vn -0.4094 -0.3241 -0.8529
vn -0.4507 -0.6378 -0.6246
vn -0.1944 -0.8935 -0.4048
vn -0.3309 -0.6395 -0.6940
vn -0.2470 -0.3255 -0.9127
vn -0.2012 -0.6421 -0.7398
vn -0.1199 -0.8938 -0.4322
vn -0.0345 -0.9898 -0.1384
vn -0.0376 -0.8928 -0.4490
vn -0.0117 -0.9902 -0.1394
vn -0.0828 -0.3271 -0.9414
vn -0.0692 -0.6411 -0.7643
vn 0.0375 -0.8928 -0.4490
vn 0.0117 -0.9902 -0.1394
vn 0.0345 -0.9898 -0.1383
vn 0.0694 -0.6411 -0.7643
vn 0.0830 -0.3272 -0.9413
vn 0.2013 -0.6422 -0.7396
vn 0.1201 -0.8938 -0.4321
vn 0.1943 -0.8936 -0.4047
vn 0.3309 -0.6395 -0.6940
vn 0.2471 -0.3252 -0.9128
vn 0.0891 -0.0805 -0.9928
vt 0.121416 0.948412
vt 0.120725 0.948282
vt 0.119997 0.947856
vt 0.123220 0.948407
vt 0.121471 0.948411
vt 0.121579 0.948411
vt 0.121737 0.948411
vt 0.121940 0.948410
vt 0.122108 0.948410
vt 0.122341 0.948409
vt 0.122647 0.948408
vt 0.123020 0.948407
vt 0.123420 0.948406
vt 0.123793 0.948405
vt 0.124100 0.948404
vt 0.124332 0.948404
vt 0.124501 0.948403
vt 0.124650 0.948403
vt 0.124803 0.948402
vt 0.124938 0.948402
vt 0.125020 0.948402
vt 0.125714 0.948268
vt 0.126441 0.947838
vt 0.126826 0.947283
vt 0.126787 0.942533
vt 0.126382 0.941972
vt 0.125777 0.941598
vt 0.119609 0.947303
vt 0.119481 0.943217
vt 0.122280 0.947296
vt 0.122238 0.943209
vt 0.122880 0.943207
vt 0.122273 0.942546
vt 0.122901 0.947294
vt 0.122377 0.941983
vt 0.122891 0.942544
vt 0.122924 0.941981
vt 0.122976 0.941606
vt 0.123532 0.943206
vt 0.123518 0.942542
vt 0.123481 0.941980
vt 0.123427 0.941604
vt 0.123408 0.941473
vt 0.124029 0.941978
vt 0.123871 0.941603
vt 0.123792 0.941471
vt 0.124294 0.941602
vt 0.124109 0.941471
vt 0.124135 0.942541
vt 0.124551 0.941977
vt 0.124684 0.941601
vt 0.122572 0.948277
vt 0.123002 0.948275
vt 0.122162 0.948278
vt 0.122937 0.947848
vt 0.121784 0.948279
vt 0.122382 0.947849
vt 0.121852 0.947851
vt 0.121449 0.948280
vt 0.121364 0.947852
vt 0.121169 0.948280
vt 0.120932 0.947853
vt 0.120569 0.947854
vt 0.120950 0.948281
vt 0.120288 0.947855
vt 0.120250 0.947301
vt 0.119934 0.947302
vt 0.120801 0.948282
vt 0.120095 0.947855
vt 0.119718 0.947303
vt 0.119594 0.943216
vt 0.119817 0.943216
vt 0.119621 0.942553
vt 0.119730 0.942553
vt 0.119944 0.942552
vt 0.120120 0.941989
vt 0.120023 0.941990
vt 0.120310 0.941989
vt 0.120626 0.941612
vt 0.120705 0.941612
vt 0.121395 0.941478
vt 0.121339 0.941478
vt 0.121507 0.941478
vt 0.120859 0.941612
vt 0.121084 0.941611
vt 0.121670 0.941477
vt 0.120588 0.941988
vt 0.121879 0.941477
vt 0.120258 0.942551
vt 0.120946 0.941987
vt 0.121374 0.941610
vt 0.122053 0.941476
vt 0.121719 0.941609
vt 0.122293 0.941476
vt 0.120143 0.943215
vt 0.120661 0.942550
vt 0.120656 0.947300
vt 0.120562 0.943214
vt 0.121061 0.943212
vt 0.121140 0.947299
vt 0.121141 0.942549
vt 0.121626 0.943211
vt 0.121686 0.947297
vt 0.121372 0.941986
vt 0.121684 0.942547
vt 0.121854 0.941985
vt 0.122109 0.941608
vt 0.122610 0.941475
vt 0.122532 0.941607
vt 0.122995 0.941474
vt 0.266359 0.095911
vt 0.315525 0.077842
vt 0.333115 0.077793
vt 0.301841 0.077880
vt 0.290681 0.095844
vt 0.247438 0.095963
vt 0.319668 0.095756
vt 0.354079 0.077736
vt 0.292481 0.077905
vt 0.394986 0.077623
vt 0.254806 0.146987
vt 0.227927 0.096016
vt 0.287729 0.077918
vt 0.234497 0.095998
vt 0.185439 0.147178
vt 0.177327 0.147201
vt 0.143634 0.223693
vt 0.152777 0.223668
vt 0.131977 0.313847
vt 0.201418 0.147134
vt 0.224777 0.147070
vt 0.170785 0.223619
vt 0.197109 0.223546
vt 0.141481 0.313820
vt 0.160202 0.313769
vt 0.152489 0.868997
vt 0.143283 0.869022
vt 0.170626 0.868947
vt 0.187569 0.313693
vt 0.184174 0.944118
vt 0.175953 0.944141
vt 0.200366 0.944073
vt 0.197137 0.868874
vt 0.224037 0.944008
vt 0.243548 0.964029
vt 0.237182 0.964047
vt 0.295571 0.981812
vt 0.302445 0.981793
vt 0.256085 0.963995
vt 0.313780 0.981761
vt 0.274413 0.963944
vt 0.326678 0.981726
vt 0.297976 0.963879
vt 0.339187 0.981691
vt 0.353357 0.981652
vt 0.254468 0.943924
vt 0.326057 0.963802
vt 0.384627 0.981566
vt 0.358658 0.963712
vt 0.429101 0.981444
vt 0.231219 0.868780
vt 0.222750 0.313597
vt 0.230952 0.223453
vt 0.264678 0.313481
vt 0.271284 0.223342
vt 0.290594 0.146888
vt 0.281114 0.313436
vt 0.271837 0.868668
vt 0.290734 0.943825
vt 0.289802 0.868618
vt 0.313779 0.943761
vt 0.289582 0.223291
vt 0.369887 0.313191
vt 0.375801 0.868381
vt 0.390565 0.943549
vt 0.418112 0.963548
vt 0.483126 0.981295
vt 0.480421 0.963376
vt 0.471038 0.943327
vt 0.543692 0.963202
vt 0.541105 0.981135
vt 0.465930 0.868133
vt 0.552754 0.943102
vt 0.606001 0.963030
vt 0.595130 0.980986
vt 0.557448 0.867880
vt 0.633227 0.942880
vt 0.124349 0.941470
vt 0.125029 0.941600
vt 0.124523 0.941469
vt 0.125319 0.941599
vt 0.124733 0.941469
vt 0.124895 0.941468
vt 0.125459 0.941975
vt 0.125544 0.941599
vt 0.125033 0.941976
vt 0.124724 0.942539
vt 0.125267 0.942537
vt 0.124174 0.943204
vt 0.124786 0.943202
vt 0.125747 0.942536
vt 0.125351 0.943201
vt 0.125850 0.943199
vt 0.125295 0.947287
vt 0.124748 0.947289
vt 0.124155 0.947291
vt 0.125778 0.947286
vt 0.126269 0.943198
vt 0.126150 0.942535
vt 0.126184 0.947285
vt 0.125817 0.941974
vt 0.126595 0.943197
vt 0.126464 0.942534
vt 0.126095 0.941973
vt 0.126285 0.941972
vt 0.126678 0.942534
vt 0.126818 0.943197
vt 0.126500 0.947284
vt 0.126931 0.943196
vt 0.126716 0.947284
vt 0.125868 0.947839
vt 0.126150 0.947839
vt 0.125506 0.947840
vt 0.125074 0.947842
vt 0.124991 0.948270
vt 0.125271 0.948269
vt 0.124585 0.947843
vt 0.124656 0.948271
vt 0.125489 0.948269
vt 0.124278 0.948272
vt 0.124056 0.947845
vt 0.123868 0.948273
vt 0.123533 0.947292
vt 0.123501 0.947846
vt 0.123438 0.948274
vt 0.125639 0.948268
vt 0.126343 0.947838
vt 0.125698 0.941598
vt 0.125007 0.941468
vt 0.125064 0.941468
vt 0.123348 0.941473
vt 0.123054 0.941473
vt 0.123004 0.941474
vt 0.122760 0.941474
vt 0.122310 0.941476
vt 0.122667 0.941475
vt 0.122183 0.941476
vt 0.122467 0.941475
vt 0.122018 0.941476
vt 0.122356 0.941475
vt 0.122997 0.941474
vt 0.122628 0.941475
vt 0.122717 0.941474
vt 0.122411 0.941475
vt 0.123038 0.941474
vt 0.123364 0.941473
vt 0.122173 0.941476
vt 0.122129 0.941476
vt 0.123407 0.941473
vt 0.123685 0.941472
vt 0.123405 0.941473
vt 0.123774 0.941472
vt 0.123991 0.941471
vt 0.123398 0.941473
vt 0.124046 0.941471
vt 0.124273 0.941470
vt 0.123735 0.941472
vt 0.124229 0.941470
vt 0.124384 0.941470
vt 0.123936 0.941471
vt 0.123642 0.941472
vt 0.124092 0.941471
vt 0.124538 0.941469
vt 0.124220 0.941470
vt 0.124641 0.941469
vt 0.121865 0.941477
vt 0.121762 0.941477
vt 0.665455 0.962866
vt 0.639605 0.980863
vt 0.695684 0.962783
vt 0.670608 0.980778
vt 0.710013 0.942669
vt 0.647576 0.867632
vt 0.557393 0.312674
vt 0.733576 0.867395
vt 0.721586 0.962711
vt 0.683679 0.980742
vt 0.727958 0.942619
vt 0.761410 0.942527
vt 0.743321 0.962651
vt 0.699398 0.980698
vt 0.789480 0.942449
vt 0.760227 0.962605
vt 0.711625 0.980665
vt 0.811315 0.942389
vt 0.813895 0.867174
vt 0.771792 0.962573
vt 0.719988 0.980641
vt 0.777663 0.962557
vt 0.724235 0.980630
vt 0.833834 0.942327
vt 0.826251 0.942348
vt 0.863570 0.867036
vt 0.855078 0.867060
vt 0.871056 0.311809
vt 0.838349 0.867106
vt 0.862290 0.311833
vt 0.851393 0.221742
vt 0.859826 0.221719
vt 0.845022 0.311881
vt 0.834782 0.221788
vt 0.820860 0.145427
vt 0.828343 0.145406
vt 0.806121 0.145467
vt 0.781398 0.094491
vt 0.775337 0.094507
vt 0.726141 0.076710
vt 0.721758 0.076722
vt 0.763400 0.094540
vt 0.713124 0.076746
vt 0.745948 0.094589
vt 0.700502 0.076781
vt 0.784575 0.145527
vt 0.684276 0.076825
vt 0.810500 0.221855
vt 0.723513 0.094650
vt 0.756875 0.145603
vt 0.696775 0.094716
vt 0.664939 0.076879
vt 0.624032 0.076991
vt 0.819778 0.311950
vt 0.779283 0.221941
vt 0.782457 0.867260
vt 0.787327 0.312040
vt 0.748652 0.312147
vt 0.744991 0.867363
vt 0.739203 0.312173
vt 0.742081 0.222044
vt 0.650430 0.312418
vt 0.730237 0.222076
vt 0.723864 0.145694
vt 0.667907 0.094796
vt 0.705202 0.145745
vt 0.644842 0.222312
vt 0.629427 0.145954
vt 0.606533 0.094965
vt 0.579645 0.077114
vt 0.542215 0.095142
vt 0.533127 0.077242
vt 0.555348 0.222558
vt 0.550017 0.146173
vt 0.476902 0.095322
vt 0.485891 0.077372
vt 0.439373 0.077500
vt 0.469382 0.146396
vt 0.464472 0.222809
vt 0.389971 0.146614
vt 0.412584 0.095500
vt 0.351210 0.095669
vt 0.314197 0.146823
vt 0.374977 0.223056
vt 0.462923 0.312935
s 1
f 1/1/1 2/2/2 3/2/3
f 2/2/2 4/3/4 3/2/3
f 2/2/2 5/3/5 4/3/4
f 1/1/1 3/2/3 6/1/6
f 6/1/6 7/4/7 1/1/1
f 1/1/1 7/4/7 8/5/8
f 9/5/9 7/4/7 6/1/6
f 8/5/8 7/4/7 10/6/10
f 11/6/11 7/4/7 9/5/9
f 10/6/10 7/4/7 12/7/12
f 13/7/13 7/4/7 11/6/11
f 14/8/14 12/7/12 7/4/7
f 15/8/15 7/4/7 13/7/13
f 16/9/16 14/8/14 7/4/7
f 15/8/15 17/9/17 7/4/7
f 16/9/16 7/4/7 18/10/18
f 19/10/19 7/4/7 17/9/17
f 18/10/18 7/4/7 20/11/20
f 21/11/21 7/4/7 19/10/19
f 20/11/20 7/4/7 22/12/22
f 23/12/23 7/4/7 21/11/21
f 22/12/22 7/4/7 24/13/24
f 25/13/25 7/4/7 23/12/23
f 24/13/24 7/4/7 26/14/26
f 27/14/27 7/4/7 25/13/25
f 26/14/26 7/4/7 28/15/28
f 29/15/29 7/4/7 27/14/27
f 28/15/28 7/4/7 30/16/30
f 31/16/31 7/4/7 29/15/29
f 30/16/30 7/4/7 32/17/32
f 33/17/33 7/4/7 31/16/31
f 34/18/34 32/17/32 7/4/7
f 33/17/33 35/18/35 7/4/7
f 34/18/34 7/4/7 36/19/36
f 35/18/35 37/19/37 7/4/7
f 36/19/36 7/4/7 38/20/38
f 39/20/39 7/4/7 37/19/37
f 38/20/38 7/4/7 40/21/40
f 41/21/41 7/4/7 39/20/39
f 40/21/40 7/4/7 41/21/41
f 41/21/41 42/22/42 40/21/40
f 43/23/43 42/22/44 44/22/45
f 42/22/44 43/23/43 45/23/46
f 46/24/47 45/23/46 43/23/43
f 45/23/46 46/24/47 47/24/48
f 95/25/49 96/26/50 97/26/51
f 98/27/52 97/26/51 96/26/50
f 96/26/50 95/25/49 99/25/53
f 100/28/54 101/29/55 102/28/56
f 53/30/57 300/31/58 51/32/59
f 299/33/60 51/32/59 300/31/58
f 51/32/59 52/34/61 53/30/57
f 298/35/62 60/36/63 299/33/60
f 51/32/59 299/33/60 60/36/63
f 60/36/63 298/35/62 210/37/64
f 213/38/65 210/37/64 298/35/62
f 60/36/63 59/39/66 51/32/59
f 52/34/61 51/32/59 59/39/66
f 210/37/64 209/40/67 60/36/63
f 59/39/66 60/36/63 209/40/67
f 213/38/65 212/41/68 210/37/64
f 209/40/67 210/37/64 212/41/68
f 212/41/68 213/38/65 214/42/69
f 215/43/70 214/42/69 213/38/65
f 212/41/68 211/44/71 209/40/67
f 214/42/69 211/44/71 212/41/68
f 215/43/70 216/45/72 214/42/69
f 211/44/71 214/42/69 216/45/72
f 216/45/72 215/43/70 217/46/73
f 217/46/73 218/47/74 216/45/72
f 211/44/71 216/45/72 218/47/74
f 218/47/74 217/46/73 219/48/75
f 211/44/71 206/49/76 209/40/67
f 209/40/67 206/49/76 59/39/66
f 218/47/74 207/50/77 211/44/71
f 211/44/71 207/50/77 206/49/76
f 219/48/75 208/51/78 218/47/74
f 207/50/77 218/47/74 208/51/78
f 48/52/79 49/12/80 50/11/81
f 49/12/80 48/52/79 56/53/82
f 56/53/82 57/13/83 49/12/80
f 50/11/81 306/54/84 48/52/79
f 306/54/84 50/11/81 304/10/85
f 48/52/79 55/55/86 56/53/82
f 304/10/85 303/56/87 306/54/84
f 303/56/87 304/10/85 259/9/88
f 306/54/84 54/57/89 48/52/79
f 55/55/86 48/52/79 54/57/89
f 303/56/87 305/58/90 306/54/84
f 54/57/89 306/54/84 305/58/90
f 303/56/87 259/9/88 252/59/91
f 259/9/88 257/8/92 252/59/91
f 305/58/90 303/56/87 302/60/93
f 302/60/93 303/56/87 252/59/91
f 257/8/92 253/61/94 252/59/91
f 253/61/94 257/8/92 256/7/95
f 302/60/93 252/59/91 233/62/96
f 247/63/97 252/59/91 253/61/94
f 233/62/96 252/59/91 247/63/97
f 256/7/95 254/64/98 253/61/94
f 254/64/98 256/7/95 258/6/99
f 253/61/94 250/65/100 247/63/97
f 250/65/100 253/61/94 254/64/98
f 244/66/101 233/62/96 247/63/97
f 248/67/102 247/63/97 250/65/100
f 247/63/97 248/67/102 244/66/101
f 258/6/99 260/68/103 254/64/98
f 260/68/103 258/6/99 261/5/104
f 261/5/104 262/2/105 260/68/103
f 262/2/105 261/5/104 263/1/106
f 264/3/107 260/68/103 262/2/105
f 255/69/108 254/64/98 260/68/103
f 260/68/103 264/3/107 255/69/108
f 254/64/98 255/69/108 250/65/100
f 265/28/109 255/69/108 264/3/107
f 266/3/110 265/28/109 264/3/107
f 266/3/110 267/28/111 265/28/109
f 255/69/108 265/28/109 251/70/112
f 251/70/112 250/65/100 255/69/108
f 250/65/100 251/70/112 248/67/102
f 268/29/113 251/70/112 265/28/109
f 267/28/114 269/29/115 268/29/113
f 249/71/116 248/67/102 251/70/112
f 251/70/112 268/29/113 249/71/116
f 248/67/102 249/71/116 245/72/117
f 245/72/117 244/66/101 248/67/102
f 269/29/115 270/73/118 268/29/113
f 269/29/115 271/73/119 270/73/118
f 268/29/113 272/74/120 249/71/116
f 268/29/113 270/73/118 272/74/120
f 249/71/116 246/75/121 245/72/117
f 249/71/116 272/74/120 246/75/121
f 270/73/118 273/76/122 272/74/120
f 270/73/118 274/77/123 273/76/122
f 272/74/120 275/78/124 246/75/121
f 272/74/120 273/76/122 275/78/124
f 284/79/125 273/76/122 274/77/123
f 286/77/126 284/79/125 274/77/123
f 273/76/122 284/79/125 279/80/127
f 284/79/125 282/81/128 279/80/127
f 284/79/125 285/82/129 282/81/128
f 280/83/130 279/80/127 282/81/128
f 277/84/131 273/76/122 279/80/127
f 279/80/127 280/83/130 277/84/131
f 273/76/122 277/84/131 275/78/124
f 280/83/130 278/85/132 277/84/131
f 278/85/132 280/83/130 281/86/133
f 277/84/131 276/87/134 275/78/124
f 276/87/134 277/84/131 278/85/132
f 246/75/121 275/78/124 276/87/134
f 283/88/135 278/85/132 281/86/133
f 246/75/121 276/87/134 242/89/136
f 245/72/117 246/75/121 242/89/136
f 278/85/132 243/90/137 276/87/134
f 242/89/136 276/87/134 243/90/137
f 278/85/132 283/88/135 287/91/138
f 243/90/137 278/85/132 287/91/138
f 287/91/138 283/88/135 288/92/139
f 288/92/139 289/93/140 287/91/138
f 289/93/140 243/90/137 287/91/138
f 290/94/141 289/93/140 288/92/139
f 245/72/117 242/89/136 239/95/142
f 244/66/101 245/72/117 239/95/142
f 242/89/136 243/90/137 240/96/143
f 239/95/142 242/89/136 240/96/143
f 239/95/142 234/97/144 244/66/101
f 239/95/142 240/96/143 237/98/145
f 234/97/144 239/95/142 237/98/145
f 233/62/96 244/66/101 234/97/144
f 240/96/143 236/99/146 237/98/145
f 236/99/146 234/97/144 237/98/145
f 233/62/96 234/97/144 235/100/147
f 234/97/144 236/99/146 235/100/147
f 235/100/147 302/60/93 233/62/96
f 236/99/146 240/96/143 241/101/148
f 243/90/137 241/101/148 240/96/143
f 235/100/147 236/99/146 238/102/149
f 241/101/148 238/102/149 236/99/146
f 302/60/93 235/100/147 301/103/150
f 238/102/149 301/103/150 235/100/147
f 301/103/150 305/58/90 302/60/93
f 241/101/148 243/90/137 291/104/151
f 243/90/137 289/93/140 291/104/151
f 238/102/149 241/101/148 295/105/152
f 291/104/151 295/105/152 241/101/148
f 301/103/150 238/102/149 300/31/58
f 295/105/152 300/31/58 238/102/149
f 301/103/150 53/30/57 305/58/90
f 300/31/58 53/30/57 301/103/150
f 53/30/57 54/57/89 305/58/90
f 289/93/140 294/106/153 291/104/151
f 295/105/152 291/104/151 294/106/153
f 294/106/153 289/93/140 292/107/154
f 290/94/141 292/107/154 289/93/140
f 293/108/155 292/107/154 290/94/141
f 53/30/57 52/34/61 54/57/89
f 293/108/155 296/109/156 292/107/154
f 297/110/157 296/109/156 293/108/155
f 292/107/154 298/35/62 294/106/153
f 298/35/62 292/107/154 296/109/156
f 297/110/157 213/38/65 296/109/156
f 213/38/65 298/35/62 296/109/156
f 297/110/157 215/43/70 213/38/65
f 299/33/60 294/106/153 298/35/62
f 294/106/153 299/33/60 295/105/152
f 300/31/58 295/105/152 299/33/60
f 127/111/158 128/112/159 129/113/160
f 127/111/158 130/114/161 128/112/159
f 129/113/160 131/115/162 127/111/158
f 130/114/161 127/111/158 132/116/163
f 129/113/160 133/117/164 131/115/162
f 133/117/164 129/113/160 134/118/165
f 132/116/163 135/119/166 130/114/161
f 133/117/164 134/118/165 136/120/167
f 137/121/168 127/111/158 131/115/162
f 137/121/168 131/115/162 133/117/164
f 135/119/166 138/122/169 139/123/170
f 135/119/166 140/124/171 138/122/169
f 135/119/166 132/116/163 140/124/171
f 141/125/172 138/122/169 140/124/171
f 132/116/163 141/125/172 140/124/171
f 138/122/169 141/125/172 142/126/173
f 141/125/172 143/127/174 142/126/173
f 144/128/175 143/127/174 141/125/172
f 144/128/175 145/129/176 143/127/174
f 132/116/163 146/130/177 141/125/172
f 146/130/177 144/128/175 141/125/172
f 132/116/163 147/131/178 146/130/177
f 147/131/178 132/116/163 127/111/158
f 127/111/158 137/121/168 147/131/178
f 147/131/178 148/132/179 146/130/177
f 148/132/179 144/128/175 146/130/177
f 147/131/178 149/133/180 148/132/179
f 137/121/168 149/133/180 147/131/178
f 148/132/179 150/134/181 144/128/175
f 150/134/181 145/129/176 144/128/175
f 149/133/180 151/135/182 148/132/179
f 151/135/182 150/134/181 148/132/179
f 152/136/183 145/129/176 150/134/181
f 145/129/176 152/136/183 153/137/184
f 154/138/185 150/134/181 151/135/182
f 150/134/181 154/138/185 152/136/183
f 155/139/186 151/135/182 149/133/180
f 156/140/187 153/137/184 152/136/183
f 153/137/184 156/140/187 157/141/188
f 158/142/189 152/136/183 154/138/185
f 152/136/183 158/142/189 156/140/187
f 151/135/182 159/143/190 154/138/185
f 159/143/190 151/135/182 155/139/186
f 154/138/185 160/144/191 158/142/189
f 160/144/191 154/138/185 159/143/190
f 161/145/192 157/141/188 156/140/187
f 157/141/188 161/145/192 162/146/193
f 161/145/192 163/147/194 162/146/193
f 163/147/194 161/145/192 164/148/195
f 156/140/187 165/149/196 161/145/192
f 165/149/196 164/148/195 161/145/192
f 165/149/196 156/140/187 158/142/189
f 164/148/195 165/149/196 166/150/197
f 167/151/198 165/149/196 158/142/189
f 167/151/198 166/150/197 165/149/196
f 167/151/198 158/142/189 160/144/191
f 166/150/197 167/151/198 168/152/199
f 169/153/200 168/152/199 167/151/198
f 167/151/198 160/144/191 169/153/200
f 168/152/199 169/153/200 170/154/201
f 169/153/200 171/155/202 170/154/201
f 160/144/191 172/156/203 169/153/200
f 171/155/202 169/153/200 173/157/204
f 172/156/203 173/157/204 169/153/200
f 173/157/204 174/158/205 171/155/202
f 159/143/190 172/156/203 160/144/191
f 174/158/205 173/157/204 175/159/206
f 175/159/206 176/160/207 174/158/205
f 172/156/203 159/143/190 177/161/208
f 155/139/186 177/161/208 159/143/190
f 177/161/208 155/139/186 178/162/209
f 179/163/210 178/162/209 155/139/186
f 179/163/210 155/139/186 149/133/180
f 137/121/168 179/163/210 149/133/180
f 179/163/210 180/164/211 178/162/209
f 180/164/211 177/161/208 178/162/209
f 137/121/168 181/165/212 179/163/210
f 180/164/211 179/163/210 181/165/212
f 181/165/212 137/121/168 182/166/213
f 133/117/164 182/166/213 137/121/168
f 181/165/212 183/167/214 180/164/211
f 177/161/208 180/164/211 184/168/215
f 184/168/215 172/156/203 177/161/208
f 183/167/214 184/168/215 180/164/211
f 172/156/203 184/168/215 185/169/216
f 173/157/204 172/156/203 185/169/216
f 184/168/215 183/167/214 186/170/217
f 186/170/217 185/169/216 184/168/215
f 187/171/218 173/157/204 185/169/216
f 185/169/216 186/170/217 187/171/218
f 173/157/204 187/171/218 175/159/206
f 183/167/214 181/165/212 188/172/219
f 182/166/213 188/172/219 181/165/212
f 189/173/220 186/170/217 183/167/214
f 188/172/219 189/173/220 183/167/214
f 190/174/221 187/171/218 186/170/217
f 186/170/217 189/173/220 190/174/221
f 175/159/206 187/171/218 191/175/222
f 187/171/218 190/174/221 191/175/222
f 191/175/222 192/176/223 175/159/206
f 176/160/207 175/159/206 192/176/223
f 192/176/223 193/177/224 176/160/207
f 193/177/224 192/176/223 194/178/225
f 195/179/226 192/176/223 191/175/222
f 192/176/223 195/179/226 194/178/225
f 194/178/225 196/180/227 193/177/224
f 195/179/226 196/180/227 194/178/225
f 196/180/227 197/181/228 193/177/224
f 191/175/222 198/182/229 195/179/226
f 198/182/229 191/175/222 190/174/221
f 196/180/227 195/179/226 199/183/230
f 196/180/227 200/184/231 197/181/228
f 199/183/230 200/184/231 196/180/227
f 200/184/231 201/185/232 197/181/228
f 195/179/226 202/186/233 199/183/230
f 202/186/233 195/179/226 198/182/229
f 200/184/231 199/183/230 203/187/234
f 202/186/233 203/187/234 199/183/230
f 208/51/78 219/48/75 220/188/235
f 220/188/235 221/189/236 208/51/78
f 221/189/236 220/188/235 222/190/237
f 222/190/237 223/191/238 221/189/236
f 223/191/238 222/190/237 224/192/239
f 225/193/240 223/191/238 224/192/239
f 223/191/238 124/194/241 221/189/236
f 124/194/241 208/51/78 221/189/236
f 223/191/238 225/193/240 226/195/242
f 207/50/77 208/51/78 205/196/243
f 208/51/78 124/194/241 205/196/243
f 204/197/244 207/50/77 205/196/243
f 207/50/77 204/197/244 206/49/76
f 205/196/243 125/198/245 204/197/244
f 124/194/241 125/198/245 205/196/243
f 206/49/76 204/197/244 77/199/246
f 206/49/76 77/199/246 59/39/66
f 204/197/244 125/198/245 126/200/247
f 204/197/244 126/200/247 77/199/246
f 125/198/245 124/194/241 121/201/248
f 125/198/245 122/202/249 126/200/247
f 121/201/248 122/202/249 125/198/245
f 122/202/249 121/201/248 119/203/250
f 78/204/251 126/200/247 122/202/249
f 76/205/252 77/199/246 126/200/247
f 126/200/247 78/204/251 76/205/252
f 77/199/246 76/205/252 68/206/253
f 68/206/253 59/39/66 77/199/246
f 119/203/250 117/207/254 122/202/249
f 122/202/249 117/207/254 78/204/251
f 121/201/248 118/208/255 119/203/250
f 118/208/255 117/207/254 119/203/250
f 118/208/255 121/201/248 120/209/256
f 124/194/241 120/209/256 121/201/248
f 118/208/255 116/210/257 117/207/254
f 120/209/256 124/194/241 123/211/258
f 124/194/241 223/191/238 123/211/258
f 120/209/256 114/212/259 118/208/255
f 114/212/259 116/210/257 118/208/255
f 226/195/242 123/211/258 223/191/238
f 114/212/259 120/209/256 112/213/260
f 123/211/258 112/213/260 120/209/256
f 123/211/258 226/195/242 115/214/261
f 112/213/260 123/211/258 115/214/261
f 226/195/242 110/215/262 115/214/261
f 115/214/261 109/216/263 112/213/260
f 109/216/263 115/214/261 110/215/262
f 112/213/260 105/217/264 114/212/259
f 105/217/264 112/213/260 109/216/263
f 105/217/264 94/218/265 114/212/259
f 114/212/259 94/218/265 116/210/257
f 109/216/263 103/219/266 105/217/264
f 105/217/264 93/220/267 94/218/265
f 103/219/266 93/220/267 105/217/264
f 94/218/265 82/221/268 116/210/257
f 93/220/267 85/222/269 94/218/265
f 94/218/265 85/222/269 82/221/268
f 116/210/257 82/221/268 81/223/270
f 117/207/254 116/210/257 81/223/270
f 117/207/254 81/223/270 78/204/251
f 81/223/270 75/224/271 78/204/251
f 75/224/271 76/205/252 78/204/251
f 82/221/268 72/225/272 81/223/270
f 72/225/272 75/224/271 81/223/270
f 85/222/269 79/226/273 82/221/268
f 72/225/272 82/221/268 79/226/273
f 76/205/252 75/224/271 69/227/274
f 69/227/274 68/206/253 76/205/252
f 70/228/275 69/227/274 75/224/271
f 75/224/271 72/225/272 70/228/275
f 74/18/276 72/225/272 79/226/273
f 72/225/272 74/18/276 73/17/277
f 71/16/278 72/225/272 73/17/277
f 72/225/272 71/16/278 70/228/275
f 79/226/273 80/19/279 74/18/276
f 67/15/280 70/228/275 71/16/278
f 83/229/281 80/19/279 79/226/273
f 79/226/273 85/222/269 83/229/281
f 83/229/281 84/20/282 80/19/279
f 67/15/280 66/230/283 70/228/275
f 69/227/274 70/228/275 66/230/283
f 64/14/284 66/230/283 67/15/280
f 66/230/283 65/231/285 69/227/274
f 68/206/253 69/227/274 65/231/285
f 66/230/283 64/14/284 63/232/286
f 65/231/285 66/230/283 63/232/286
f 57/13/83 63/232/286 64/14/284
f 65/231/285 61/233/287 68/206/253
f 59/39/66 68/206/253 61/233/287
f 59/39/66 61/233/287 52/34/61
f 61/233/287 65/231/285 62/234/288
f 63/232/286 62/234/288 65/231/285
f 52/34/61 61/233/287 55/55/86
f 61/233/287 62/234/288 55/55/86
f 52/34/61 55/55/86 54/57/89
f 62/234/288 63/232/286 58/235/289
f 58/235/289 55/55/86 62/234/288
f 63/232/286 57/13/83 58/235/289
f 55/55/86 58/235/289 56/53/82
f 57/13/83 56/53/82 58/235/289
f 84/20/282 83/229/281 86/236/290
f 86/236/290 87/21/291 84/20/282
f 87/21/291 86/236/290 88/22/292
f 89/22/293 87/21/291 88/22/292
f 86/236/290 90/23/294 88/22/292
f 83/229/281 91/237/295 86/236/290
f 90/23/294 86/236/290 91/237/295
f 91/237/295 83/229/281 85/222/269
f 90/23/294 91/237/295 92/24/296
f 91/237/295 85/222/269 93/220/267
f 92/24/296 91/237/295 93/220/267
f 103/219/266 92/24/296 93/220/267
f 103/219/266 104/24/297 92/24/296
f 104/24/297 103/219/266 106/219/298
f 107/25/299 106/219/298 103/219/266
f 106/219/298 107/25/299 108/25/300
f 103/219/266 109/216/263 107/25/299
f 110/215/262 107/25/299 109/216/263
f 107/25/299 110/215/262 111/26/301
f 110/215/262 113/27/302 111/26/301
f 113/27/302 110/215/262 227/238/303
f 110/215/262 226/195/242 227/238/303
f 225/193/240 227/238/303 226/195/242
f 227/238/303 225/193/240 228/239/304
f 228/239/304 113/27/302 227/238/303
f 113/27/302 228/239/304 229/240/305
f 229/240/305 230/27/306 113/27/302
f 231/26/307 113/27/302 230/27/306
f 230/27/306 229/240/305 232/240/308
f 307/241/309 308/242/309 309/242/309
f 310/243/309 307/241/309 309/242/309
f 311/108/309 309/242/309 308/242/309
f 310/243/309 309/242/309 312/108/309
f 309/242/309 311/108/309 312/108/309
f 312/108/309 313/244/309 310/243/309
f 312/108/309 314/245/309 313/244/309
f 315/246/309 310/243/309 313/244/309
f 315/246/309 313/244/309 314/245/309
f 314/245/309 312/108/309 316/247/309
f 311/108/309 316/247/309 312/108/309
f 314/245/309 317/248/309 315/246/309
f 314/245/309 318/249/309 317/248/309
f 319/250/309 315/246/309 317/248/309
f 319/250/309 317/248/309 318/249/309
f 310/243/309 315/246/309 320/251/309
f 315/246/309 319/250/309 321/252/309
f 321/252/309 320/251/309 315/246/309
f 322/253/310 321/252/309 319/250/309
f 319/250/309 323/254/311 322/253/310
f 322/253/310 324/110/309 321/252/309
f 320/251/309 321/252/309 324/110/309
f 324/110/309 322/253/310 325/255/312
f 326/256/313 324/110/309 325/255/312
f 323/254/311 319/250/309 327/257/309
f 318/249/309 327/257/309 319/250/309
f 327/257/309 328/258/314 323/254/311
f 328/258/314 327/257/309 329/86/315
f 329/86/315 330/88/316 328/258/314
f 331/83/317 329/86/315 327/257/309
f 327/257/309 318/249/309 331/83/317
f 332/81/318 331/83/317 318/249/309
f 324/110/309 326/256/313 333/259/309
f 333/259/309 326/256/313 334/260/319
f 335/261/309 324/110/309 333/259/309
f 324/110/309 335/261/309 320/251/309
f 336/262/309 333/259/309 334/260/319
f 336/262/309 335/261/309 333/259/309
f 337/263/320 336/262/309 334/260/319
f 338/264/309 320/251/309 335/261/309
f 320/251/309 338/264/309 310/243/309
f 339/265/309 336/262/309 337/263/320
f 340/266/321 339/265/309 337/263/320
f 335/261/309 336/262/309 341/267/309
f 338/264/309 335/261/309 341/267/309
f 341/267/309 336/262/309 339/265/309
f 342/190/322 339/265/309 340/266/321
f 307/241/309 310/243/309 338/264/309
f 339/265/309 342/190/322 343/268/309
f 342/190/322 344/269/309 343/268/309
f 344/269/309 342/190/322 345/192/323
f 346/270/309 339/265/309 343/268/309
f 341/267/309 339/265/309 346/270/309
f 344/269/309 346/270/309 343/268/309
f 347/193/324 344/269/309 345/192/323
f 346/270/309 348/271/309 341/267/309
f 338/264/309 341/267/309 348/271/309
f 307/241/309 338/264/309 348/271/309
f 349/272/309 348/271/309 346/270/309
f 346/270/309 344/269/309 349/272/309
f 348/271/309 350/46/309 307/241/309
f 348/271/309 349/272/309 350/46/309
f 344/269/309 347/193/324 351/273/309
f 344/269/309 351/273/309 349/272/309
f 352/239/325 351/273/309 347/193/324
f 349/272/309 353/274/309 350/46/309
f 351/273/309 353/274/309 349/272/309
f 351/273/309 352/239/325 354/275/309
f 353/274/309 351/273/309 354/275/309
f 355/269/309 356/268/309 357/265/309
f 352/239/325 358/240/326 354/275/309
f 353/274/309 359/46/309 350/46/309
f 359/46/309 307/241/309 350/46/309
f 354/275/309 360/274/309 353/274/309
f 359/46/309 353/274/309 360/274/309
f 358/240/326 361/275/309 354/275/309
f 360/274/309 354/275/309 361/275/309
f 361/275/309 358/240/326 362/240/327
f 363/239/328 361/275/309 362/240/327
f 364/273/309 360/274/309 361/275/309
f 361/275/309 363/239/328 364/273/309
f 360/274/309 364/273/309 365/272/309
f 365/272/309 359/46/309 360/274/309
f 366/269/309 364/273/309 363/239/328
f 366/269/309 365/272/309 364/273/309
f 363/239/328 367/193/329 366/269/309
f 368/268/309 366/269/309 367/193/329
f 367/193/329 369/192/330 368/268/309
f 370/188/331 368/268/309 369/192/330
f 369/192/330 371/190/332 370/188/331
f 370/188/331 372/265/309 368/268/309
f 365/272/309 366/269/309 373/270/309
f 372/265/309 373/270/309 366/269/309
f 372/265/309 370/188/331 374/48/333
f 365/272/309 373/270/309 375/267/309
f 372/265/309 375/267/309 373/270/309
f 359/46/309 365/272/309 376/271/309
f 375/267/309 376/271/309 365/272/309
f 374/48/333 377/262/309 372/265/309
f 375/267/309 372/265/309 377/262/309
f 377/262/309 374/48/333 378/46/334
f 375/267/309 379/264/309 376/271/309
f 359/46/309 376/271/309 379/264/309
f 377/262/309 380/261/309 375/267/309
f 379/264/309 375/267/309 380/261/309
f 378/46/334 381/259/309 377/262/309
f 380/261/309 377/262/309 381/259/309
f 381/259/309 378/46/334 382/43/335
f 383/110/336 381/259/309 382/43/335
f 379/264/309 384/241/309 359/46/309
f 307/241/309 359/46/309 384/241/309
f 308/242/309 307/241/309 384/241/309
f 379/264/309 308/242/309 384/241/309
f 381/259/309 383/110/336 385/110/309
f 386/108/337 385/110/309 383/110/336
f 387/251/309 381/259/309 385/110/309
f 381/259/309 387/251/309 380/261/309
f 385/110/309 386/108/337 388/252/309
f 388/252/309 387/251/309 385/110/309
f 388/252/309 386/108/337 389/94/338
f 380/261/309 390/243/309 379/264/309
f 390/243/309 380/261/309 387/251/309
f 308/242/309 379/264/309 390/243/309
f 387/251/309 388/252/309 391/246/309
f 390/243/309 387/251/309 391/246/309
f 388/252/309 389/94/338 392/250/309
f 391/246/309 388/252/309 392/250/309
f 393/92/339 392/250/309 389/94/338
f 308/242/309 390/243/309 394/244/309
f 390/243/309 391/246/309 394/244/309
f 394/244/309 311/108/309 308/242/309
f 391/246/309 392/250/309 395/248/309
f 395/248/309 394/244/309 391/246/309
f 393/92/339 396/257/309 392/250/309
f 396/257/309 395/248/309 392/250/309
f 397/88/340 396/257/309 393/92/339
f 397/88/340 398/249/309 396/257/309
f 398/249/309 395/248/309 396/257/309
f 397/88/340 399/86/341 398/249/309
f 400/83/342 398/249/309 399/86/341
f 401/245/309 394/244/309 395/248/309
f 395/248/309 398/249/309 401/245/309
f 394/244/309 401/245/309 311/108/309
f 398/249/309 400/83/342 402/276/309
f 398/249/309 402/276/309 401/245/309
f 403/81/343 402/276/309 400/83/342
f 401/245/309 404/247/309 311/108/309
f 402/276/309 404/247/309 401/245/309
f 316/247/309 311/108/309 404/247/309
f 402/276/309 403/81/343 405/277/309
f 404/247/309 402/276/309 405/277/309
f 405/277/309 316/247/309 404/247/309
f 403/81/343 406/82/344 405/277/309
f 316/247/309 405/277/309 407/277/309
f 406/82/344 407/277/309 405/277/309
f 407/277/309 406/82/344 408/82/345
f 409/79/346 408/82/345 406/82/344
f 408/82/345 409/79/346 410/79/347
f 411/77/348 410/79/347 409/79/346
f 332/81/318 407/277/309 408/82/345
f 412/73/349 411/77/350 413/77/351
f 412/73/349 413/77/351 414/73/352
f 407/277/309 332/81/318 415/276/309
f 415/276/309 316/247/309 407/277/309
f 318/249/309 415/276/309 332/81/318
f 316/247/309 415/276/309 314/245/309
f 318/249/309 314/245/309 415/276/309
f 200/184/231 416/278/353 201/185/232
f 203/187/234 416/278/353 200/184/231
f 416/278/353 417/279/354 201/185/232
f 418/280/355 417/279/354 416/278/353
f 418/280/355 419/281/356 417/279/354
f 416/278/353 203/187/234 420/282/357
f 420/282/357 418/280/355 416/278/353
f 203/187/234 202/186/233 421/283/358
f 421/283/358 420/282/357 203/187/234
f 422/284/359 421/283/358 202/186/233
f 198/182/229 422/284/359 202/186/233
f 420/282/357 421/283/358 423/285/360
f 424/286/361 419/281/356 418/280/355
f 419/281/356 424/286/361 425/287/362
f 418/280/355 420/282/357 426/288/363
f 423/285/360 426/288/363 420/282/357
f 418/280/355 427/289/364 424/286/361
f 427/289/364 418/280/355 426/288/363
f 428/290/365 425/287/362 424/286/361
f 425/287/362 428/290/365 429/291/366
f 424/286/361 430/292/367 428/290/365
f 430/292/367 424/286/361 427/289/364
f 431/293/368 429/291/366 428/290/365
f 429/291/366 431/293/368 432/294/369
f 433/295/370 428/290/365 430/292/367
f 428/290/365 433/295/370 431/293/368
f 427/289/364 434/296/371 430/292/367
f 435/297/372 432/294/369 431/293/368
f 432/294/369 435/297/372 436/298/373
f 436/298/373 435/297/372 437/299/374
f 436/298/373 437/299/374 438/300/375
f 435/297/372 439/301/376 437/299/374
f 431/293/368 440/302/377 435/297/372
f 435/297/372 440/302/377 439/301/376
f 440/302/377 431/293/368 433/295/370
f 440/302/377 441/303/378 439/301/376
f 440/302/377 442/304/379 441/303/378
f 433/295/370 442/304/379 440/302/377
f 442/304/379 443/305/380 441/303/378
f 430/292/367 444/306/381 433/295/370
f 433/295/370 444/306/381 442/304/379
f 430/292/367 434/296/371 444/306/381
f 442/304/379 445/307/382 443/305/380
f 444/306/381 445/307/382 442/304/379
f 446/308/383 443/305/380 445/307/382
f 443/305/380 446/308/383 447/309/384
f 444/306/381 448/310/385 445/307/382
f 434/296/371 448/310/385 444/306/381
f 445/307/382 449/311/386 446/308/383
f 449/311/386 445/307/382 448/310/385
f 450/312/387 447/309/384 446/308/383
f 447/309/384 450/312/387 451/313/388
f 452/314/389 446/308/383 449/311/386
f 446/308/383 452/314/389 450/312/387
f 453/315/390 451/313/388 450/312/387
f 450/312/387 454/316/391 453/315/390
f 454/316/391 455/317/392 453/315/390
f 454/316/391 456/318/393 455/317/392
f 450/312/387 457/319/394 454/316/391
f 456/318/393 454/316/391 457/319/394
f 457/319/394 450/312/387 452/314/389
f 457/319/394 458/320/395 456/318/393
f 458/320/395 457/319/394 459/321/396
f 459/321/396 460/322/397 458/320/395
f 457/319/394 452/314/389 461/323/398
f 449/311/386 461/323/398 452/314/389
f 459/321/396 457/319/394 461/323/398
f 459/321/396 462/324/399 460/322/397
f 461/323/398 449/311/386 463/325/400
f 462/324/399 459/321/396 464/326/401
f 459/321/396 461/323/398 465/327/402
f 459/321/396 465/327/402 464/326/401
f 463/325/400 465/327/402 461/323/398
f 448/310/385 463/325/400 449/311/386
f 462/324/399 464/326/401 466/328/403
f 465/327/402 466/328/403 464/326/401
f 462/324/399 466/328/403 467/329/404
f 466/328/403 468/330/405 467/329/404
f 463/325/400 448/310/385 469/331/406
f 434/296/371 469/331/406 448/310/385
f 465/327/402 463/325/400 470/332/407
f 469/331/406 470/332/407 463/325/400
f 471/333/408 469/331/406 434/296/371
f 470/332/407 469/331/406 472/334/409
f 471/333/408 472/334/409 469/331/406
f 427/289/364 471/333/408 434/296/371
f 473/335/410 470/332/407 472/334/409
f 471/333/408 473/335/410 472/334/409
f 427/289/364 474/336/411 471/333/408
f 473/335/410 471/333/408 474/336/411
f 474/336/411 427/289/364 426/288/363
f 426/288/363 423/285/360 474/336/411
f 474/336/411 475/337/412 473/335/410
f 475/337/412 474/336/411 423/285/360
f 470/332/407 473/335/410 476/338/413
f 475/337/412 476/338/413 473/335/410
f 476/338/413 465/327/402 470/332/407
f 423/285/360 477/339/414 475/337/412
f 477/339/414 423/285/360 421/283/358
f 476/338/413 475/337/412 478/340/415
f 477/339/414 478/340/415 475/337/412
f 465/327/402 476/338/413 479/341/416
f 478/340/415 479/341/416 476/338/413
f 466/328/403 465/327/402 479/341/416
f 421/283/358 422/284/359 477/339/414
f 479/341/416 480/342/417 466/328/403
f 468/330/405 466/328/403 480/342/417
f 479/341/416 478/340/415 481/343/418
f 480/342/417 479/341/416 481/343/418
f 478/340/415 477/339/414 482/344/419
f 482/344/419 481/343/418 478/340/415
f 422/284/359 482/344/419 477/339/414
f 483/345/420 480/342/417 481/343/418
f 481/343/418 482/344/419 483/345/420
f 484/346/421 468/330/405 480/342/417
f 480/342/417 483/345/420 484/346/421
f 468/330/405 484/346/421 485/347/422
f 486/348/423 485/347/422 484/346/421
f 483/345/420 486/348/423 484/346/421
f 485/347/422 486/348/423 487/349/424
f 488/350/425 483/345/420 482/344/419
f 482/344/419 422/284/359 488/350/425
f 486/348/423 483/345/420 489/351/426
f 483/345/420 488/350/425 489/351/426
f 490/352/427 487/349/424 486/348/423
f 489/351/426 490/352/427 486/348/423
f 487/349/424 490/352/427 491/353/428
f 490/352/427 492/354/429 491/353/428
f 488/350/425 493/355/430 489/351/426
f 490/352/427 489/351/426 493/355/430
f 493/355/430 488/350/425 494/356/431
f 422/284/359 494/356/431 488/350/425
f 495/357/432 490/352/427 493/355/430
f 494/356/431 495/357/432 493/355/430
f 492/354/429 490/352/427 496/358/433
f 490/352/427 495/357/432 496/358/433
f 496/358/433 136/120/167 492/354/429
f 136/120/167 496/358/433 497/359/434
f 495/357/432 497/359/434 496/358/433
f 133/117/164 136/120/167 497/359/434
f 182/166/213 133/117/164 497/359/434
f 182/166/213 497/359/434 498/360/435
f 497/359/434 495/357/432 498/360/435
f 188/172/219 182/166/213 498/360/435
f 499/361/436 498/360/435 495/357/432
f 498/360/435 499/361/436 188/172/219
f 495/357/432 494/356/431 499/361/436
f 189/173/220 188/172/219 499/361/436
f 500/362/437 499/361/436 494/356/431
f 499/361/436 500/362/437 189/173/220
f 494/356/431 422/284/359 500/362/437
f 500/362/437 190/174/221 189/173/220
f 422/284/359 198/182/229 500/362/437
f 190/174/221 500/362/437 198/182/229
